<svg viewBox="0 0 86 33" xmlns="http://www.w3.org/2000/svg"><g id="Group" fill="#4A4A4A"><path d="M9.631 11.844c0-.002-.478 2.338-.863 3.749-.406 1.459-.81 2.922-1.212 4.389a70.729 70.729 0 014.207-2.169l-1.204-3.142c-.39-1.012-.867-2.858-.867-2.858-.02.01-.041.02-.06.031m3.374 9.146a71.908 71.908 0 00-6.654 3.43 1338.53 1338.53 0 00-1.249 4.768A72.328 72.328 0 00.001 32.61 978.472 978.472 0 016.94 8.937a71.55 71.55 0 015.489-2.827 2221.788 2221.788 0 017.501 16.202 71.292 71.292 0 00-5.581 2.11c-.45-1.15-.896-2.293-1.343-3.432" id="Fill-1"></path><path d="M30.487 9.207c1.81-.303 2.946-1.263 2.946-2.793.002-1.435-.654-2.258-3.496-1.776A74.9 74.9 0 0028.04 5v4.665c.814-.168 1.63-.32 2.448-.458zm-8.032-6.845A71.344 71.344 0 0130.422.534C32.78.144 33.92.163 34.926.37c2.636.56 4.301 2.473 4.301 5.255 0 2.043-1.176 4.291-3.487 5.467v.056s.324.316.879 1.074a390.09 390.09 0 014.533 6.478 70.787 70.787 0 00-6.355.395 452.74 452.74 0 00-4.116-5.9c-.884.147-1.765.31-2.642.491v6.46a71.702 71.702 0 00-5.584 1.381V2.362z" id="Fill-3"></path><path d="M54.237.185c5.716.994 8.566 4.731 8.57 4.69-.852.927-1.709 1.87-2.568 2.828 0 .003-2.545-2.641-5.742-3.184-4.429-.732-6.56 1.917-6.556 4.653-.002 2.865 2.289 5.865 6.556 6.576 3.487.597 6.09-1.03 6.092-1.039.954 1.394 1.904 2.81 2.85 4.245-.005.04-3.161 2.092-9.202 1.04-7.247-1.194-12.209-5.201-12.2-10.928-.007-5.544 5.247-10.045 12.2-8.881" id="Fill-5"></path><path d="M66.765 3.796a71.579 71.579 0 015.385 2.201v7.665a71.709 71.709 0 017.712 4.114V10.11a71.985 71.985 0 014.959 3.334V32.61a71.985 71.985 0 00-4.959-3.334V21.77a71.406 71.406 0 00-7.712-4.113v7.504a72.27 72.27 0 00-5.385-2.201V3.796z" id="Fill-8"></path></g></svg>