<svg viewBox="0 0 87 27" xmlns="http://www.w3.org/2000/svg"><g id="Page-1" fill="#4A4A4A"><path d="M7.684 18.892c1.229-.405 1.855-1.697 1.873-2.96.022-1.264-.549-2.18-1.787-1.892-.857.207-1.712.42-2.566.641l-.042 5.065c.837-.295 1.679-.58 2.522-.854zm-.245-9.37c1.073-.18 1.554-1.275 1.57-2.364.015-1.056-.438-1.911-1.593-1.813-.712.064-1.423.13-2.134.2L5.245 9.89c.73-.126 1.462-.249 2.194-.369zM.999.444C3.167.428 5.333.412 7.501.398c3.538.02 5.97 1.922 5.895 5.553-.036 1.791-.786 3.693-2.126 4.891v.062c1.995.428 2.689 2.438 2.649 4.295-.098 4.546-3.313 7.298-6.705 8.773a97.727 97.727 0 00-6.215 2.861V.445z" id="Fill-1"></path><path d="M22.313 8.798c1.39-.158 2.28-1.03 2.314-2.477.032-1.372-.444-2.165-2.624-2.057-.487.027-.975.054-1.462.083l-.112 4.665c.627-.074 1.255-.145 1.884-.214M16.31.344c2.053-.011 4.107-.02 6.16-.029C24.277.31 25.14.437 25.9.73c1.985.772 3.212 2.513 3.158 5.039-.038 1.85-.98 3.922-2.773 5.029 0 .017 0 .033-.002.05 0 0 .242.297.651.991a219.436 219.436 0 003.356 5.627c-1.64.24-3.274.521-4.904.846a195.58 195.58 0 01-3.018-5.61c-.68.106-1.359.217-2.037.334l-.157 6.463c-1.448.373-2.89.779-4.322 1.219l.46-20.374" id="Fill-4"></path><path d="M32.359.285l4.33-.008-.203 16.468c-1.48.117-2.957.268-4.433.453L32.36.285" id="Fill-6"></path><path d="M45.167 13.069c3.064.067 4.912-1.45 4.874-4.613-.04-3.133-1.974-4.776-4.91-4.785-.596-.004-1.194-.007-1.79-.007.001 3.129.004 6.257.006 9.386.607.001 1.213.008 1.82.019M39.008.274c2.094-.002 4.19-.002 6.284-.002 5.56-.031 9.178 3.055 9.28 8.412.103 5.382-3.48 7.976-9.213 7.786a96.861 96.861 0 00-6.46.055c.035-5.417.072-10.834.11-16.251" id="Fill-8"></path><path d="M65.36 0c4.527-.053 6.864 2.71 6.864 2.736a168.55 168.55 0 01-1.992 3.58c0-.013-1.845-1.986-4.347-2.098-3.714-.164-5.177 2.158-5.117 4.767.074 3.348 2.476 5.69 5.237 6.25 2.089.416 3.56-.676 3.56-.689-.013-.505-.024-1.012-.036-1.517-.832-.153-1.666-.297-2.5-.434a136794 136794 0 01-.098-3.976c2.114.238 4.223.508 6.323.81.085 3.932.17 7.862.253 11.792a93.85 93.85 0 00-3.588-1.092c-.004-.185-.041-1.386-.058-1.39-.094.094-1.66 1.221-4.625.498-4.57-1.152-8.89-4.96-8.984-10.471C56.167 3.873 59.977.08 65.36 0" id="Fill-10"></path><path d="M75.706.366c3.692.022 7.385.046 11.075.076l.003 5.503a403.178 403.178 0 00-6.687-.656l.055 4.245c1.775.287 3.543.595 5.305.925l.018 5.371a145.064 145.064 0 00-5.26-1.4l.059 4.407a116.06 116.06 0 016.853 2.46v5.536a97.049 97.049 0 00-11.013-4.72c-.135-7.25-.27-14.498-.408-21.747" id="Fill-12"></path></g></svg>