<svg viewBox="0 0 73 27" xmlns="http://www.w3.org/2000/svg"><g id="bulgeEffectIcon" fill="#4A4A4A"><path d="M6.22 18.952c1.138.183 1.7-.718 1.7-1.84 0-1.12-.539-2.067-1.678-2.108-.79-.034-1.577-.07-2.363-.107v3.682c.777.128 1.559.252 2.34.373zm-.335-7.662c.983-.052 1.408-.956 1.408-1.895 0-.908-.427-1.62-1.476-1.452-.647.101-1.294.205-1.938.312v3.16c.667-.043 1.335-.086 2.006-.125zM0 5.704c1.935-.625 3.882-1.2 5.84-1.723 3.195-.906 5.451.555 5.45 4.306 0 1.81-.653 3.69-1.867 4.595v.059c1.843.69 2.523 2.953 2.522 4.878 0 4.834-2.936 5.941-6.106 5.033A117.362 117.362 0 010 21.128V5.704z" id="Fill-1"></path><path d="M14.519 2.01c1.32-.247 2.642-.471 3.968-.673v15.27c0 2.521 1.113 3.98 2.821 4.12 1.71.134 2.828-1.236 2.828-3.929V.616C25.468.48 26.803.365 28.137.273V16.89c.002 5.941-2.703 10.001-6.806 9.422-4.146-.634-6.812-4.842-6.812-9.881V2.01z" id="Fill-3"></path><path d="M31.304.082C32.64.032 33.978.004 35.315 0v21.203c2.231.004 4.462-.029 6.692-.096v5.558c-3.565.19-7.136.22-10.703.085V.082z" id="Fill-5"></path><path d="M51.555.658c4.166.66 6.24 4.107 6.24 4.063-.633 1.29-1.267 2.63-1.901 4.01-.002.018-1.654-2.304-3.952-2.519-3.415-.3-4.812 3.112-4.81 6.935 0 4.92 2.148 7.718 4.674 7.483 1.91-.172 3.295-2.022 3.295-2.012V16.8c-.765.037-1.53.072-2.294.105v-5.07c1.94.036 3.875.08 5.803.13v12.617c-1.1.219-2.201.42-3.305.607v-.658c0-.496.023-.991.023-.991l-.047.007c0-.02-1.563 2.307-4.272 2.703-4.168.641-8.018-4.202-8.018-12.889C42.99 5.647 46.592-.116 51.555.658" id="Fill-7"></path><path d="M61.583 2.882c3.359.758 6.693 1.666 9.99 2.722v3.278a185.34 185.34 0 00-6.065-1.025v3.484c1.624.092 3.24.192 4.85.3v3.437c-1.61.102-3.226.195-4.85.281v3.616c2.137-.325 4.263-.685 6.375-1.082v3.235c-3.398 1.1-6.836 2.041-10.3 2.823V2.881z" id="Fill-9"></path></g></svg>