<svg viewBox="0 0 89 33" xmlns="http://www.w3.org/2000/svg"><g id="Text-Effects---Desktop" stroke="none" stroke-width="1" fill="none" fill-rule="evenodd"><g id="2B_NDX---TEXT-EFFECTS-MENU---2(NORMAL)" transform="translate(-260 -226)" fill="#4A4A4A"><g id="Group-25" transform="translate(260 226)"><path d="M14.622 16.865c1.9.496 3.794 1.038 5.671 1.616-.38 1.16-.978 1.973-1.797 2.486-.82.512-1.837.738-3.053.788-1.216.05-2.773-.107-4.64-.373-1.838-.262-3.771-.605-5.56-1.15-1.43-.437-2.663-1.04-3.695-1.884C.515 17.504 0 16.458 0 15.177c0-1.71.918-2.993 2.735-3.872 2.41-1.165 5.19-1.527 7.783-1.785 1.98-.197 4.21-.413 6.21.057 1.495.352 2.627 1.201 3.36 2.778-1.896.383-3.8.737-5.708 1.058-.2-.427-.41-.722-.628-.902-.362-.301-.804-.51-1.327-.64-.523-.128-1.107-.168-1.754-.13-1.463.085-2.584.469-3.362 1.148-.584.51-.883 1.294-.885 2.39-.002 1.359.347 2.275 1.048 2.81.7.537 1.688.868 2.963 1.003 1.237.131 2.173.04 2.807-.33.634-.369 1.094-.992 1.38-1.897" id="Fill-1"></path><path d="M28.752 15.922c0 1.95.387 3.322 1.167 4.178.779.856 1.83 1.337 3.172 1.48 1.38.146 2.459-.108 3.237-.892.778-.783 1.192-2.418 1.239-4.897.04-2.086-.329-3.546-1.111-4.364-.783-.819-1.867-1.118-3.262-1.025-1.337.089-2.43.531-3.251 1.362-.822.83-1.192 2.19-1.191 4.158m-6.43-.186c-.027-2.375.827-4.833 2.839-6.212 2.309-1.583 5.365-2.122 8.117-2.403 2.643-.27 5.905-.585 8.084.95 2.255 1.59 2.805 5.236 2.654 7.927-.121 2.15-.19 4.552-1.338 6.475-.842 1.41-2.086 2.172-3.656 2.497-1.807.374-4.027.155-5.79-.124-1.847-.292-3.95-.714-5.728-1.442-1.53-.627-2.78-1.485-3.74-2.746-.959-1.261-1.418-2.93-1.442-4.922" id="Fill-3"></path><path d="M47.358 5.796c1.957-.208 3.914-.418 5.87-.63 3.687 3.284 5.782 8.64 7.89 12.95-.037-4.606-.088-9.212-.091-13.818 2.06-.246 4.118-.517 6.172-.808.02 8.742.134 17.484.15 26.226-2.054-.319-4.11-.636-6.165-.95-3.368-3.998-5.534-9.122-7.916-13.72.012 4.181.046 8.365.006 12.547-2.059-.3-4.118-.597-6.177-.894.175-6.966.074-13.937.261-20.903" id="Fill-5"></path><path d="M71.218 2.906C76.92 2.036 82.613 1.102 88.31.2l.005 5.49c-3.523.408-7.045.811-10.57 1.202.02 1.878.03 2.956.05 5.173 3.262-.177 6.524-.37 9.784-.584l.015 8.081c-3.245-.035-6.49-.102-9.734-.185l.061 6.594c3.562.34 7.125.66 10.692.947v5.932c-5.742-.756-11.466-1.62-17.19-2.502-.06-9.148-.144-18.295-.205-27.442" id="Fill-7"></path></g></g></g></svg>