<svg viewBox="0 0 84 27" xmlns="http://www.w3.org/2000/svg"><g id="Page-1" fill="#4A4A4A"><path d="M5.691 9.73c4.588-2.657 7.95-1.554 7.916-1.576-.311 1.21-.593 2.421-.846 3.63.015-.004-2.69-.513-5.134.912-3.374 1.987-3.624 4.977-2.363 6.839 1.316 1.948 4.043 2.903 6.826 1.28 2.282-1.324 3.314-3.953 3.327-3.964a57.531 57.531 0 013.143 1.684c-.014.032-1.224 3.337-4.952 5.488-4.421 2.574-9.27 2.166-12.2-1.482-2.864-3.529-1.321-9.502 4.283-12.81" id="Fill-1"></path><path d="M15.25 5.302a72.405 72.405 0 014.772-1.749 793.324 793.324 0 013.035 9.594c.506 1.594 1.889 2.065 3.633 1.593 1.745-.467 2.726-1.575 2.39-3.217a785.635 785.635 0 00-2.142-9.854 71.58 71.58 0 014.963-.908 776.234 776.234 0 011.502 9.982c.457 3.586-1.895 6.4-5.814 7.447-3.962 1.068-7.346-.198-8.685-3.533a787.794 787.794 0 00-3.655-9.355" id="Fill-3"></path><path d="M42.6 7.245c1.464.017 2.4-.621 2.44-1.898.033-1.196-.502-1.974-2.942-1.993a62.571 62.571 0 00-1.63.016c.05 1.295.096 2.592.139 3.887a62.434 62.434 0 011.992-.012M35.297.307a72.31 72.31 0 017.172-.305c2.11.022 3.12.203 4.003.524 2.317.844 3.607 2.666 3.386 4.97-.16 1.696-1.284 3.41-3.127 4.074l-.003.045c-.002 0 .24.307.623 1.014a71.094 71.094 0 012.797 5.943 57.244 57.244 0 00-4.484-.47 71.596 71.596 0 00-2.902-5.503 58.238 58.238 0 00-2.049.008c.052 1.793.1 3.59.14 5.383-1.34.026-2.68.098-4.012.216a807.588 807.588 0 00-1.544-15.9" id="Fill-5"></path><path d="M51.183.546c1.826.226 3.649.523 5.463.892a103.52 103.52 0 011.679 9.7c.138 1.071.095 2.677.095 2.675l.046.014s.676-1.434 1.266-2.309a116.358 116.358 0 015.713-7.713 73.462 73.462 0 015.205 1.981 102.45 102.45 0 00-11.152 12.82 58.112 58.112 0 00-4.125-1.125A93.681 93.681 0 0051.183.546" id="Fill-8"></path><path d="M72.099 6.42A74.782 74.782 0 0184 13.158c-.566.95-1.134 1.898-1.704 2.844a72.303 72.303 0 00-6.854-4.22c-.406.871-.814 1.74-1.222 2.61 1.792.97 3.556 2.03 5.287 3.179-.553.956-1.108 1.91-1.666 2.865a65.493 65.493 0 00-5.045-3.04c-.429.9-.86 1.8-1.291 2.699a63.556 63.556 0 016.321 3.937c-.585.935-1.173 1.869-1.763 2.8a59.777 59.777 0 00-9.794-5.636 776.92 776.92 0 005.83-14.776" id="Fill-10"></path></g></svg>