<svg viewBox="0 0 89 34" xmlns="http://www.w3.org/2000/svg"><g id="Text-Effects---Desktop" stroke="none" stroke-width="1" fill="none" fill-rule="evenodd"><g id="2B_NDX---TEXT-EFFECTS-MENU---2(NORMAL)" transform="translate(-261 -396)" fill="#4A4A4A"><g id="Group-28" transform="translate(261 396)"><path d="M3.22 3.385c.032 4.045.049 7.585.08 11.635l.751.156c.64.133 1.092.095 1.357-.133.266-.228.47-.69.614-1.439.143-.748.204-2.063.184-3.956-.026-2.505-.211-4.147-.555-4.982-.345-.834-.904-1.213-1.681-1.247l-.75-.034M.208.187l4.429.007c.871.002 1.578.1 2.12.379.542.277.995.727 1.358 1.498.364.77.634 1.82.81 3.182.177 1.362.276 2.95.297 4.629.034 2.632-.058 4.572-.278 5.752-.219 1.18-.535 1.967-.947 2.461-.412.494-.862.669-1.348.689a6.398 6.398 0 01-1.819-.187c-1.827-.455-2.75-.685-4.622-1.142V.187" id="Fill-49"></path><path d="M13.262 10.456c.036 2.599.242 4.404.617 5.477.376 1.073.874 1.613 1.493 1.74.636.13 1.12-.205 1.455-1.157.334-.952.482-2.92.444-5.94-.032-2.542-.237-4.322-.615-5.367-.38-1.046-.88-1.503-1.506-1.527-.598-.023-1.071.4-1.419 1.388-.348.988-.504 2.765-.469 5.386m-2.98-.404c-.053-4.047.345-6.845 1.192-8.293C12.32.311 13.524.061 15.085.061c1.6 0 2.847.225 3.737 1.787.89 1.56 1.359 4.683 1.408 9.176.036 3.261-.123 5.808-.476 7.398-.353 1.591-.879 2.41-1.576 2.788-.697.378-1.575.308-2.637.05-1.08-.261-1.983-.61-2.706-1.206-.724-.598-1.321-1.519-1.79-3.142-.47-1.622-.724-3.964-.763-6.86" id="Fill-51"></path><path d="M20.34.215c1.13 0 1.697.001 2.831.003.627 4.258.829 8.634 1.14 12.928.368-4.282.597-8.7 1.377-12.926l2.836.001c.864 4.43 1.14 9.08 1.57 13.57.262-4.509.418-9.083.957-13.568l2.814.003c-.98 7.94-.89 15.997-1.916 23.932-1.228-.237-1.875-.354-3.028-.576-.947-5.118-1.258-10.402-1.764-15.59-.427 4.96-.645 10.039-1.559 14.927-1.149-.237-1.723-.359-2.872-.609C21.552 15.003 21.51 7.525 20.34.215" id="Fill-53"></path><path d="M34.723.227l2.776.003c2.126 4.489 2.834 9.88 3.851 14.778-.065-4.924-.11-9.85-.23-14.773 1.12 0 1.68.002 2.8.003.196 8.867.19 17.738.394 26.604a595.22 595.22 0 00-2.78-.597c-1.997-4.648-2.777-9.985-3.84-14.969.062 4.736.107 9.473.216 14.208a400.356 400.356 0 00-2.86-.583c-.141-8.224-.178-16.45-.327-24.674" id="Fill-55"></path><path d="M44.77.238l2.826.004c.7 5.268.87 10.638 1.188 15.947.351-5.306.536-10.69 1.32-15.944l2.822.004c.94 5.463 1.16 11.106 1.578 16.64.25-5.541.378-11.122.945-16.637l2.83.003c-1.12 9.71-.896 19.567-2.048 29.271-1.14-.251-1.708-.377-2.844-.63-.994-6.303-1.28-12.769-1.788-19.137-.414 6.124-.616 12.34-1.495 18.41l-2.85-.63C45.99 18.503 46.19 9.25 44.771.24" id="Fill-57"></path><path d="M64.48 19.874c-.352-4.478-.685-8.959-1.09-13.432-.38 4.372-.7 8.75-1.039 13.126l2.13.306m.636 7.258c-1.359-.265-2.04-.398-3.41-.662-.187 1.721-.28 2.424-.47 3.221-1.235-.264-1.866-.397-3.056-.65 2.04-9.434 1.644-19.326 3.603-28.779l3.252.017c2.116 10.186 1.697 20.826 3.698 31.037l-3.121-.68c-.199-.901-.298-1.666-.496-3.504" id="Fill-59"></path><path d="M72.526 12.072l1.253.102c.135.011.397-.146.786-.473.196-.145.356-.545.48-1.185.124-.638.186-1.37.185-2.164-.001-1.175-.1-2.013-.298-2.583-.197-.569-.568-.84-1.11-.857l-1.307-.042c.005 2.473.007 4.033.011 7.202m-2.942 18.63c-.041-10.132-.032-20.264-.073-30.395 1.987.011 2.98.017 4.966.022.92.002 1.624.1 2.111.365.487.265.88.78 1.178 1.888.298 1.11.448 2.734.449 5.025 0 1.997-.113 3.922-.34 5.542-.226 1.622-.538 2.95-.935 3.934-.253.627-.6 1.125-1.04 1.496.353.54.61 1.07.772 1.583.109.343.267 1.069.475 2.142.207 1.071.346 1.861.416 2.403.576 4.313.863 6.287 1.437 7.987-1.337-.279-2.004-.42-3.34-.701-.636-1.77-.954-3.886-1.593-8.42-.203-1.466-.38-2.503-.54-2.978-.21-.625-.458-.965-.728-1.001l-.262-.036c.006 3.926.01 7.852.022 11.777l-2.975-.633" id="Fill-61"></path><path d="M82.828 5.964l-.008 21.824.729.122c.62.103 1.064-.067 1.328-.54.263-.474.47-1.36.62-2.765.15-1.403.225-3.836.226-7.33.002-4.625-.164-7.623-.496-9.123-.333-1.5-.885-2.154-1.657-2.171l-.742-.017M79.852.321C81.622.31 82.508.3 84.278.27c.873-.014 1.577.12 2.114.562.536.442.98 1.182 1.331 2.51.35 1.326.606 3.169.764 5.596.158 2.43.237 5.288.237 8.323 0 4.757-.118 8.27-.354 10.425-.236 2.155-.564 3.606-.983 4.551-.42.946-.87 1.328-1.349 1.464a3.723 3.723 0 01-1.777.073c-1.77-.357-2.65-.538-4.409-.903V.32" id="Fill-63"></path></g></g></g></svg>