<svg xmlns="http://www.w3.org/2000/svg" viewBox="0 0 176.76 31.19"><g id="normalEffectIcon"><path class="cls-1" d="M17.92 14.6c0 1.9.34 5.15.34 5.15h-.09a54.72 54.72 0 00-2.51-5.15L7.4.51H0v30.17h7.31V16.63c0-1.9-.34-5.15-.34-5.15h.09a53.41 53.41 0 002.51 5.15l8.32 14.05h7.35V.51h-7.32z"></path><path class="cls-1" d="M44.78 0a15.18 15.18 0 00-15.63 15.41 15.37 15.37 0 0015.63 15.78 15.37 15.37 0 0015.63-15.78A15.19 15.19 0 0044.78 0zm0 24.44c-4.47 0-8.07-3.88-8.07-9 0-4.94 3.59-8.65 8.07-8.65s8.06 3.71 8.06 8.65c0 5.11-3.59 9-8.06 9z"></path><path class="cls-1" d="M81.57 18.32v-.09c3-1.52 4.47-5 4.47-8.23 0-4.39-2.13-7.47-5.52-8.78-1.29-.5-2.75-.71-5.8-.71h-10.4v30.17h7.31V20.51h3.43l5.31 10.17h8.15L82.7 20.13a17.16 17.16 0 00-1.13-1.81zm-6.77-4.14h-3.17V6.84h2.46c3.68 0 4.51 1.35 4.51 3.63s-1.45 3.71-3.79 3.71z"></path><path class="cls-1" d="M113.15.51l-4.35 12.75c-.67 1.94-1.51 5-1.59 5s-.84-3-1.51-5L101.37.51h-7.94L91 30.68h7.35l.92-13.59c.17-2.28 0-5.06.08-5.06s1 3.17 1.67 5.06l3.13 8.74h6.27l3.13-8.74c.67-1.9 1.67-5.06 1.75-5.06a45.57 45.57 0 000 5.06l.92 13.59h7.31L121.09.51z"></path><path class="cls-1" d="M136.07.51l-10.15 30.17h7.52l1.8-6.33h9.32l1.84 6.33h7.52L143.76.51zm.93 17.93l1.71-5.87c.54-1.9 1.21-5.19 1.21-5.19h.08s.67 3.29 1.21 5.19l1.67 5.87z"></path><path class="cls-1" d="M164.56 24.36V.51h-7.31v30.17h19.51v-6.32h-12.2z"></path></g></svg>