<svg viewBox="0 0 81 40" xmlns="http://www.w3.org/2000/svg"><g id="perspectiveEffectIcon"><path d="M2.687 22.424l.581-.092c.456-.071.778-.312.97-.733.192-.42.295-.941.309-1.536.013-.577-.057-1.033-.21-1.365-.153-.332-.453-.419-.903-.281l-.688.212-.059 3.795M.275 16.903a112.307 112.307 0 014.118-1.755c.872-.355 1.505-.297 1.909.373.403.67.579 1.927.527 3.878-.052 2.005-.325 3.74-.808 4.923-.482 1.183-1.184 1.714-2.118 1.716-.507.001-.762.003-1.272.01-.04 2.607-.06 3.907-.089 5.633-.908-.213-1.361-.318-2.267-.524V16.903" id="Fill-15"></path><path d="M8.07 13.703c2.478-.944 3.67-1.369 6.058-2.246-.01 1.429-.025 2.338-.063 4.3-1.508.377-2.262.562-3.79.951l-.09 3.477c1.416-.213 2.118-.313 3.522-.515-.048 2.06-.075 3.15-.125 5.242-1.408.002-2.112.002-3.527.012-.05 1.828-.074 2.739-.116 4.386 1.568.196 2.351.298 3.92.502a294.911 294.911 0 00-.067 4.614c-2.504-.624-3.748-.935-6.228-1.541.156-6.394.353-12.788.506-19.182" id="Fill-17"></path><path d="M17.483 20.034l.955-.124c.104-.014.307-.17.608-.48.153-.14.28-.465.383-.971a9.173 9.173 0 00.167-1.693c.012-.916-.055-1.574-.2-1.996-.145-.423-.424-.565-.836-.454-.396.108-.594.16-.989.266-.025 2.024-.046 3.16-.088 5.452m-2.528 14.681c.043-7.906.354-15.807.408-23.714a191.49 191.49 0 003.711-1.404c.692-.27 1.225-.33 1.598-.133.372.196.678.728.906 1.748.228 1.02.337 2.448.319 4.324-.016 1.635-.125 3.15-.318 4.432-.194 1.282-.45 2.332-.77 3.125a3.469 3.469 0 01-.823 1.247c.267.365.46.737.58 1.11.08.25.195.784.346 1.598.15.815.25 1.436.3 1.867.41 3.435.621 5.12 1.117 7.62a646.886 646.886 0 01-2.631-.644c-.526-2.491-.751-4.196-1.19-7.628-.138-1.11-.262-1.855-.378-2.192-.153-.441-.34-.665-.546-.666l-.201-.001c-.084 4.574-.13 6.917-.114 9.887l-2.314-.576" id="Fill-19"></path><path d="M22.577 27.75a49.78 49.78 0 002.223-.535c.031 1.573.12 2.725.265 3.512.233 1.274.579 1.904 1.03 1.96.336.043.6-.218.79-.841.19-.622.289-1.392.296-2.308.007-.87-.075-1.68-.245-2.395-.17-.715-.578-1.388-1.194-1.986-1.02-.99-1.73-2.314-2.145-3.927-.414-1.613-.604-3.671-.583-6.034.014-1.552.132-2.962.353-4.246.222-1.285.547-2.262.987-3.047a4.026 4.026 0 011.85-1.716c.98-.466 1.761-.366 2.296.621.535.987.856 3.03.937 6.66-.919.537-1.376.799-2.28 1.313-.046-1.501-.166-2.492-.355-3.05-.189-.557-.453-.757-.788-.636-.275.1-.482.393-.622.892-.14.5-.211 1.079-.216 1.757-.003.495.055.936.161 1.312.11.39.367.729.781 1.005 1.027.716 1.772 1.564 2.22 2.568.449 1.004.774 2.358.972 4.023.198 1.666.29 3.566.278 5.565-.014 2.349-.165 4.358-.45 5.96-.286 1.604-.678 2.57-1.175 3.126-.498.556-1.12.689-1.86.508-1.298-.317-2.214-1.167-2.72-2.88-.507-1.714-.776-4.046-.806-7.18" id="Fill-21"></path><path d="M33.281 18.09l.613-.124c.483-.098.822-.614 1.016-1.545.193-.931.288-2.091.285-3.42-.003-1.289-.09-2.31-.262-3.079-.17-.768-.488-1.032-.95-.853l-.705.272c.009 3.171.007 5.03.003 8.748M30.775 4.392a435.45 435.45 0 014.084-1.913c.899-.415 1.587-.179 2.049 1.217.46 1.396.67 3.983.711 8.141.035 3.497-.078 7.311-.703 10.774-.476 2.631-1.235 3.887-2.256 3.914-.554.016-.832.02-1.387.024.001 4.191-.007 8.382.05 12.572a66.047 66.047 0 01-2.572-.558c-.143-11.39.166-22.781.024-34.17" id="Fill-23"></path><path d="M38.772.692c2.72-1.225 4.121.18 6.857 1.345a862.926 862.926 0 00-.086 6.656c-1.69-.605-2.94-1.309-4.332-1.648l.006 6.9c1.325.244 2.4.747 3.961 1.137-.03 3.535-.044 5.44-.071 9.05-1.547-.118-2.516-.397-3.883-.53l.008 8.77c1.563.043 2.528.127 4.233-.018-.028 3.457-.04 5.018-.062 7.159-2.682.438-3.913.377-6.528.307-.041-13.043-.06-26.086-.103-39.128" id="Fill-25"></path><path d="M51.976 24.857a68.485 68.485 0 002.042 2.936c-.146 2.643-.366 4.711-.667 6.279-.301 1.568-.676 2.646-1.128 3.388-.453.742-1.034 1.159-1.744 1.333-.863.212-1.571.06-2.115-.625-.544-.684-1.016-2.108-1.38-4.897-.536-4.107-.53-8.385-.493-12.474.043-4.79-.067-10.047 1.221-14.663.69-2.469 1.759-2.873 3-2.338.973.417 1.707 1.265 2.223 2.835.517 1.57.878 3.998 1.101 7.665-.821.565-1.236.884-2.078 1.59-.062-1.145-.13-1.968-.204-2.495-.122-.883-.276-1.565-.462-2.067-.186-.501-.399-.79-.638-.871-.54-.182-.97.618-1.289 2.676-.236 1.527-.378 4.141-.412 7.828-.041 4.569.068 7.583.323 9.09.254 1.507.624 2.14 1.102 2.061.465-.076.817-.69 1.058-1.895.242-1.203.42-2.967.54-5.356" id="Fill-27"></path><path d="M54.739 6c3.11 1.472 4.571 2.094 7.418 3.263-.083 1.91-.12 3.178-.19 5.9-.953-.261-1.433-.397-2.404-.681-.144 7.363-.245 14.726-.344 22.09-.921.193-1.384.287-2.318.47.051-7.764.129-15.528.249-23.291-.997-.312-1.502-.476-2.53-.822.04-3.197.062-4.686.119-6.928" id="Fill-29"></path><path d="M63.199 9.688c.93.376 1.389.559 2.302.919-.349 8.227-.437 16.465-.64 24.697-.911.217-1.367.323-2.28.532.182-8.716.266-17.438.618-26.148" id="Fill-31"></path><path d="M66.305 10.923c.948.37 1.417.553 2.354.916.447 5.56.782 11.132 1.19 16.696.606-5.153 1.104-10.34 2.037-15.44.904.353 1.355.531 2.26.895-1.476 6.505-2.031 13.232-3.21 19.8-.998.258-1.495.385-2.485.634-1.037-7.793-1.37-15.676-2.146-23.501" id="Fill-33"></path><path d="M74.77 14.242c2.394.97 3.594 1.47 6.077 2.609 0 .894 0 1.462-.002 2.69a134.584 134.584 0 00-3.892-1.165 859.237 859.237 0 00-.045 2.881c1.44.243 2.166.37 3.647.648l-.006 3.346a235.935 235.935 0 00-3.694-.065c-.02 1.516-.03 2.272-.05 3.64 1.634-.215 2.461-.322 4.155-.53v2.86c-2.713.713-4.017 1.063-6.58 1.737.131-6.216.192-12.436.39-18.651" id="Fill-35"></path></g></svg>