<svg viewBox="0 0 78 26" xmlns="http://www.w3.org/2000/svg"><g id="Page-1" fill="#4A4A4A"><path d="M6.511 12.402c1.528.001 2.28-1.254 2.28-3 0-1.747-.752-3.022-2.204-3.195-.743-.083-1.484-.17-2.226-.26v6.438l2.15.017zM0 0c2.462.581 4.934 1.107 7.414 1.575 3.48.72 5.85 3.98 5.85 8.06 0 4.076-2.37 7.183-5.85 7.497-1.019.074-2.037.15-3.053.23v7.335c-1.457.304-2.91.627-4.361.97V0z" id="Fill-1"></path><path d="M15.886 2.956c1.47.2 2.942.383 4.417.545v18.664c-1.475.163-2.947.344-4.417.545V2.956" id="Fill-4"></path><path d="M23.9 3.916a171.7 171.7 0 004.486.32 345.454 345.454 0 005.025 8.047c.711 1.102 1.523 2.85 1.523 2.85h.05s-.202-1.798-.202-2.848v-7.8c1.48.03 2.962.04 4.443.03V21.15c-1.49-.009-2.979.002-4.469.032a603.823 603.823 0 01-5.05-7.765c-.71-1.116-1.522-2.932-1.522-2.932-.017 0-.033 0-.051-.002 0 0 .202 1.858.202 2.94v8.011c-1.478.086-2.958.192-4.434.317V3.916z" id="Fill-6"></path><path d="M51.762 3.674c4.483-.428 6.778 1.957 6.78 1.99a184.035 184.035 0 01-2.048 3.615c0-.014-2.022-1.788-4.528-1.647-3.47.18-5.123 2.618-5.123 5.07 0 2.522 1.777 5.157 5.123 5.334 2.734.157 4.806-2.01 4.806-2.028a156.25 156.25 0 012.274 3.53c-.002.042-2.547 2.917-7.284 2.455-5.675-.51-9.513-4.243-9.511-9.195-.002-4.854 4.064-8.627 9.511-9.124" id="Fill-8"></path><path d="M61.722 2.871a173.04 173.04 0 004.402-.678v8.511c2.177-.072 4.35-.154 6.515-.244V.969a166.45 166.45 0 004.36-.97v25.667a166.45 166.45 0 00-4.36-.969v-9.291a759.585 759.585 0 00-6.515-.266v8.334a166.557 166.557 0 00-4.402-.68V2.872z" id="Fill-10"></path></g></svg>