<svg viewBox="0 0 96 34" xmlns="http://www.w3.org/2000/svg"><g id="Text-Effects---Desktop" stroke="none" stroke-width="1" fill="none" fill-rule="evenodd"><g id="2B_NDX---TEXT-EFFECTS-MENU---2(NORMAL)" transform="translate(-259 -145)" fill="#4A4A4A"><g id="Group-21" transform="translate(259.946 145)"><path d="M4.45 25.297l1.06-.282c.83-.22 1.41-.522 1.752-.924.34-.401.518-.854.532-1.344.013-.476-.12-.834-.402-1.06-.281-.226-.822-.189-1.634.105l-1.243.45a678.613 678.613 0 01-.065 3.055M0 21.5c3.105-1.387 4.569-2.043 7.422-3.33 1.553-.701 2.683-.803 3.423-.24.739.562 1.087 1.72 1.04 3.389-.048 1.716-.5 3.174-1.347 4.282-.848 1.108-2.11 1.761-3.816 2.06l-2.336.41c-.045 2.033-.068 3.05-.091 5.082L0 33.187V21.5" id="Fill-1"></path><path d="M17.353 23.353c-.055 1.968.159 3.334.64 4.141.482.809 1.156 1.19 2.02 1.1.887-.091 1.58-.616 2.083-1.617.502-1.002.78-2.755.835-5.216.047-2.071-.179-3.514-.671-4.285-.492-.772-1.173-.978-2.035-.666-.827.299-1.494.99-2.013 2.029-.518 1.04-.804 2.529-.86 4.514m-4.11.923c.09-2.882.76-5.294 1.987-7.458 1.227-2.164 2.874-3.85 5.011-4.856 2.19-1.032 3.924-.889 5.147.668 1.222 1.558 1.806 4.368 1.727 8.219-.058 2.795-.369 5.144-.918 6.962-.55 1.819-1.315 3.211-2.313 4.173-.998.964-2.244 1.402-3.738 1.402-1.52 0-2.777-.367-3.765-1.03-.988-.662-1.779-1.677-2.363-3.02-.583-1.342-.84-2.997-.775-5.06" id="Fill-3"></path><path d="M29.459 8.009c1.725-.814 2.615-1.249 4.387-2.095.131 9.013-.267 18.024-.114 27.036-1.835 0-2.706-.003-4.425.011-.056-8.32.207-16.632.152-24.952" id="Fill-5"></path><path d="M36.864 4.48c1.67-.787 2.512-1.181 4.213-1.965 2.412 5.084 4.011 10.491 5.615 15.914-.002-6.12-.006-12.242-.004-18.364C48.323-.272 49.3.77 51.1 1.553a10343.71 10343.71 0 00-.309 31.394c-1.666 0-2.47 0-4.097-.003-1.925-5.573-3.621-11.233-5.503-16.822.014 5.608.024 11.217.094 16.825l-4.402.002c-.146-9.49.11-18.979-.02-28.468" id="Fill-7"></path><path d="M52.95 2.348c4.548 1.92 9.026 3.885 13.5 6-.082 2.387-.117 3.592-.178 6.014-1.827-.67-2.78-1.03-4.515-1.693-.102 6.758-.16 13.514-.18 20.273-1.755 0-2.656.001-4.456.003.07-7.288.16-14.575.303-21.861-1.801-.64-2.718-.957-4.592-1.633.046-3.071.07-4.549.118-7.103" id="Fill-9"></path><path d="M68.264 9.213c3.787 1.809 7.57 3.625 11.355 5.437-.06 1.553-.089 2.334-.142 3.901a2089.609 2089.609 0 01-7.033-2.664c-.05 1.374-.073 2.064-.116 3.445 2.659.814 3.96 1.208 6.55 1.99a810.704 810.704 0 00-.11 3.815c-2.607-.534-3.913-.805-6.57-1.361a820.596 820.596 0 00-.105 4.304c2.942.34 4.394.505 7.3.831-.039 1.667-.056 2.5-.089 4.162-4.616-.036-6.913-.054-11.582-.093.105-7.926.275-15.845.542-23.767" id="Fill-11"></path><path d="M85.878 21.15c-.071 3.37-.1 5.07-.148 8.456l1.034.114c.882.097 1.513.062 1.888-.096.376-.159.672-.47.887-.928.215-.46.327-1.227.337-2.317.012-1.443-.213-2.496-.673-3.197-.46-.7-1.226-1.264-2.296-1.655l-1.029-.377m-3.99-5.416a1157.45 1157.45 0 006.053 2.872c1.2.565 2.174 1.196 2.919 1.856.746.66 1.368 1.375 1.862 2.139a8.596 8.596 0 011.081 2.329 8.64 8.64 0 01.34 2.374c0 1.249-.17 2.183-.508 2.843-.339.66-.81 1.22-1.41 1.686-.6.466-1.245.795-1.93.959-.939.224-1.788.352-2.546.346l-6.302-.048c.1-5.786.24-11.572.44-17.356" id="Fill-13"></path></g></g></g></svg>