<svg viewBox="0 0 78 35" xmlns="http://www.w3.org/2000/svg"><g id="Text-Effects---Desktop" stroke="none" stroke-width="1" fill="none" fill-rule="evenodd"><g id="2B_NDX---TEXT-EFFECTS-MENU---2(NORMAL)" transform="translate(-267 -470)" fill="#4A4A4A"><g id="Group-26" transform="translate(267 470)"><path d="M8.101 14.029c1.485-.423 2.227-.637 3.706-1.065-.05 4.38-.12 8.76-.184 13.139-.023 1.565-.151 2.988-.383 4.184-.231 1.197-.58 2.094-1.044 2.747-.466.654-.95.99-1.453 1.174-.701.257-1.541.347-2.525.347-.57 0-1.19-.03-1.866-.093-.675-.063-1.24-.19-1.696-.418-.455-.23-.872-.583-1.25-1.149-.38-.565-.639-1.23-.779-1.987a19.909 19.909 0 01-.34-3.553V16.181c1.477-.387 2.218-.588 3.701-.997-.005 4.04-.026 8.08-.041 12.12-.006 1.285.17 2.21.523 2.84.355.628.847.903 1.477.871.626-.031 1.118-.353 1.478-1.045.362-.691.549-1.71.562-3.096.04-4.282.088-8.563.114-12.845" id="Fill-37"></path><path d="M17.583 20.829l.888-.151c.698-.118 1.193-.499 1.488-1.138.296-.639.454-1.417.474-2.284.019-.84-.088-1.485-.322-1.953-.234-.467-.69-.596-1.37-.433l-1.038.248c-.04 1.957-.066 3.205-.12 5.71m-3.51-8.03c2.456-.694 3.678-1.042 6.09-1.705 1.312-.362 2.284-.415 2.916.294.63.708.922 2.212.86 4.927-.063 2.79-.476 5.39-1.22 7.199-.745 1.808-1.84 2.715-3.29 2.856l-1.97.193c-.088 4.088-.132 6.138-.158 7.825l-3.595.007c.11-7.199.263-14.397.368-21.596" id="Fill-39"></path><path d="M25.138 10.653c1.331-.342 1.961-.496 3.233-.812.651 4.535.74 9.252.982 13.825.55-4.844.948-9.772 1.892-14.542 1.314-.327 1.984-.494 3.333-.833 1.09 4.714 1.254 9.756 1.668 14.587.392-5.113.669-10.272 1.363-15.347 1.364-.344 2.05-.517 3.418-.864-1.441 9.132-1.471 18.493-2.84 27.639l-3.475.024c-1.096-5.593-1.354-11.425-1.857-17.115-.628 5.71-1.07 11.519-2.169 17.141-1.396.008-2.095.012-3.496.015-1.193-7.829-.68-15.928-2.052-23.718" id="Fill-41"></path><path d="M47.914 24.17c-.351-4.044-.68-8.093-1.1-12.13-.518 4.11-.97 8.231-1.445 12.348a697.82 697.82 0 012.545-.218m.653 6.723c-1.626.038-2.44.06-4.074.109-.25 1.686-.373 2.393-.607 3.283-1.466.001-2.199.004-3.665.011 2.4-8.975 2.346-18.54 4.754-27.512 1.577-.383 2.357-.574 3.882-.95 2.393 9.263 1.836 19.182 4.03 28.508-1.515-.016-2.27-.03-3.776-.04-.225-.935-.333-1.674-.544-3.41" id="Fill-43"></path><path d="M57.575 15.398l1.498-.237c.162-.026.476-.248.945-.67.236-.193.43-.623.582-1.276.152-.652.23-1.375.231-2.144.003-1.137-.115-1.92-.351-2.415-.237-.494-.68-.649-1.327-.508l-1.555.338c-.001 2.38-.008 3.872-.023 6.912M53.921 34.35c-.025-9.802.172-19.603.133-29.405 2.329-.583 3.489-.878 5.847-1.48 1.093-.278 1.94-.393 2.533-.276.592.117 1.081.514 1.453 1.517.372 1.004.559 2.552.554 4.79-.004 1.948-.153 3.857-.437 5.5-.284 1.643-.67 3.023-1.156 4.087a5.107 5.107 0 01-1.264 1.727c.423.438.731.89.924 1.353.13.308.318.98.563 1.986.246 1.006.411 1.757.493 2.279.682 4.15 1.026 6.084 1.778 7.906-1.619.013-2.427.019-4.045.025-.819-1.869-1.196-3.913-1.944-8.214-.236-1.392-.445-2.357-.633-2.78-.248-.555-.544-.825-.868-.793l-.314.03c-.016 3.92-.053 7.843-.001 11.764a465.924 465.924 0 01-3.616-.016" id="Fill-45"></path><path d="M70.163 6.533c-.059 7.244-.154 14.487-.217 21.73l.892-.05c.762-.042 1.31-.322 1.64-.87.33-.546.598-1.5.807-2.96.209-1.458.346-3.931.41-7.425.083-4.624-.081-7.557-.49-8.954-.41-1.396-1.118-1.885-2.1-1.673l-.942.202m-3.765-4.726c2.187-.559 3.3-.843 5.6-1.425C73.13.095 74.072.016 74.79.305c.719.288 1.315.907 1.766 2.142.452 1.235.754 3.011.904 5.405.15 2.394.192 5.26.091 8.302-.118 3.536-.206 7.173-.73 10.683-.34 2.27-.785 3.881-1.312 4.993-.527 1.112-1.073 1.652-1.652 1.92-.793.368-1.506.514-2.148.522-2.142.023-3.208.035-5.336.054-.205-10.838.272-21.682.024-32.52" id="Fill-47"></path></g></g></g></svg>