<svg xmlns="http://www.w3.org/2000/svg" viewBox="0 0 163.79 51.07"><g id="Layer_2" data-name="Layer 2"><path class="cls-1" d="M16.51 32.4c-.58 2.61-1.1 6.83-1.1 6.83h-.09s-.65-4.36-1.31-7.28Q11 18.79 8.17 4.17 4 2.2 0 0c3.59 19 7.45 35.86 11.43 51.07h8.23c3.54-14.07 7-26.65 10.48-38.15q-4.2-1.35-8.36-2.93C20 17.07 18.29 24.52 16.51 32.4z"></path><path class="cls-1" d="M36.72 43.59q5 .28 10.1.5 1.08 3.53 2.16 7h8.13c-3.87-10.5-7.82-21.52-11.8-33.45q-4.22-.88-8.4-2c-3.38 10.84-6.72 22.53-10.08 35.42H35q.85-3.79 1.72-7.47zm3.37-13.34c.54-2.1 1.17-5.73 1.17-5.73h.09s.82 3.88 1.47 6.1 1.32 4.55 2 6.79q-3.2-.28-6.4-.61.82-3.32 1.67-6.56z"></path><path class="cls-1" d="M82.2 51.07v-6.26q-6.64 0-13.28-.09l-.26-23.91q-4.06-.29-8.11-.77l.54 31z"></path><path class="cls-1" d="M86.69 21.13l-.16 29.93h21.11l.14-6.72q-6.62.23-13.26.35l.3-24q-4.06.31-8.13.44z"></path><path class="cls-1" d="M132.94 21.05q.1-4 .19-8a173.45 173.45 0 01-20.39 5.15L112 51.07h20.88l.19-8q-6.48.44-13 .76l.16-6.52q4.94-.47 9.87-1.07l.19-7.81q-4.92.91-9.88 1.63l.16-6.28q6.22-1.18 12.37-2.73z"></path><path class="cls-1" d="M151.62 16.81c-1.06 3.44-2 7-2 7h-.09s-.84-3.11-1.81-5.76q-1.71-4.66-3.41-9-4.4 1.73-8.87 3.23c3.35 6.44 6.69 13.47 10.07 21.27l-.3 17.47h7.91q.11-9.42.21-18.83c3.6-9.69 7.11-20.37 10.46-32.23q-4.23 2.3-8.56 4.35-1.78 6.48-3.61 12.5z"></path></g></svg>