<?xml version="1.0" encoding="utf-8"?>
<!-- Svg Vector Icons : http://www.onlinewebfonts.com/icon -->
<!DOCTYPE svg PUBLIC "-//W3C//DTD SVG 1.1//EN" "http://www.w3.org/Graphics/SVG/1.1/DTD/svg11.dtd">
<svg version="1.1" xmlns="http://www.w3.org/2000/svg" xmlns:xlink="http://www.w3.org/1999/xlink" x="0px" y="0px" viewBox="0 0 1000 1000" enable-background="new 0 0 1000 1000" xml:space="preserve">
<metadata> Svg Vector Icons : http://www.onlinewebfonts.com/icon </metadata>
<g><g transform="matrix(1 0 0 -1 0 1920)"><path d="M136.1,1144.1v42.4c23.7,10.3,41.4,21.3,53.1,33c3.1,3.1,6.4,7,9.8,11.6c3.4,4.6,6.4,8.8,9,12.8c2.6,4,4.9,7.8,7.1,11.3c2.1,3.6,3.8,6.5,4.9,8.8l1.7,3L473.9,1910H533l243.2-637.5c0.9-2.3,2.2-5.5,4.1-9.6c1.9-4.1,6.1-11.4,12.6-21.8s13.6-19.6,21-27.6c4.9-4.9,9.7-9.1,14.6-12.8c4.9-3.7,9.1-6.4,12.8-8.1c3.7-1.7,7.1-3.1,10.1-4.1c3-1,5.4-1.6,7.1-1.9h2.1v-42.4H597.2v42.4c17.4,0,30.9,5.9,40.5,17.8c9.6,11.8,14.3,25.8,14.3,41.7c0,8.8-1.4,17.1-4.3,24.8l-47.9,130.2H344.2c-22.8-58.8-40.7-104.9-53.5-138.3c-3.4-9.1-5.1-17.6-5.1-25.3c0-12,4.1-21.9,12.4-29.8c8.3-7.8,18.3-13.3,30-16.5c11.7-3.1,24.5-4.7,38.5-4.7v-42.4H136.1z M369,1486.6h207.6l-98.5,282.1L369,1486.6z M93.3,930c-11.7,0-21.8,4.2-30.2,12.6c-8.4,8.4-12.6,18.5-12.6,30.2v85.6c0,11.7,4.2,21.8,12.6,30.2c8.4,8.4,18.5,12.6,30.2,12.6h813.5c11.7,0,21.8-4.2,30.2-12.6s12.6-18.5,12.6-30.2v-85.6c0-11.7-4.2-21.8-12.6-30.2S918.4,930,906.7,930H93.3z"/></g></g>
</svg>